<svg width="24" height="25" viewBox="0 0 24 25" fill="none" xmlns="http://www.w3.org/2000/svg">
<path d="M12 2.17004C8.13 2.17004 5 5.30004 5 9.17004C5 14.42 12 22.17 12 22.17C12 22.17 19 14.42 19 9.17004C19 5.30004 15.87 2.17004 12 2.17004ZM7 9.17004C7 6.41004 9.24 4.17004 12 4.17004C14.76 4.17004 17 6.41004 17 9.17004C17 12.05 14.12 16.36 12 19.05C9.92 16.38 7 12.02 7 9.17004Z" fill="#16538E"/>
<path d="M12 11.67C13.3807 11.67 14.5 10.5508 14.5 9.17004C14.5 7.78933 13.3807 6.67004 12 6.67004C10.6193 6.67004 9.5 7.78933 9.5 9.17004C9.5 10.5508 10.6193 11.67 12 11.67Z" fill="#16538E"/>
</svg>
